<svg id="visual" viewBox="0 0 1280 720" width="1280" height="720" xmlns="http://www.w3.org/2000/svg" xmlns:xlink="http://www.w3.org/1999/xlink" version="1.1"><path d="M0 123L19.3 118.3C38.7 113.7 77.3 104.3 116.2 103.2C155 102 194 109 232.8 104.2C271.7 99.3 310.3 82.7 349 80.3C387.7 78 426.3 90 465.2 98.3C504 106.7 543 111.3 581.8 102.8C620.7 94.3 659.3 72.7 698.2 66.7C737 60.7 776 70.3 814.8 70.3C853.7 70.3 892.3 60.7 931 66.7C969.7 72.7 1008.3 94.3 1047.2 95.7C1086 97 1125 78 1163.8 70.8C1202.7 63.7 1241.3 68.3 1260.7 70.7L1280 73L1280 0L1260.7 0C1241.3 0 1202.7 0 1163.8 0C1125 0 1086 0 1047.2 0C1008.3 0 969.7 0 931 0C892.3 0 853.7 0 814.8 0C776 0 737 0 698.2 0C659.3 0 620.7 0 581.8 0C543 0 504 0 465.2 0C426.3 0 387.7 0 349 0C310.3 0 271.7 0 232.8 0C194 0 155 0 116.2 0C77.3 0 38.7 0 19.3 0L0 0Z" fill="#3f629a"></path><path d="M0 282L19.3 289.2C38.7 296.3 77.3 310.7 116.2 326.2C155 341.7 194 358.3 232.8 341.5C271.7 324.7 310.3 274.3 349 267.2C387.7 260 426.3 296 465.2 296C504 296 543 260 581.8 256.5C620.7 253 659.3 282 698.2 297.7C737 313.3 776 315.7 814.8 322.8C853.7 330 892.3 342 931 344.3C969.7 346.7 1008.3 339.3 1047.2 323.7C1086 308 1125 284 1163.8 267.2C1202.7 250.3 1241.3 240.7 1260.7 235.8L1280 231L1280 71L1260.7 68.7C1241.3 66.3 1202.7 61.7 1163.8 68.8C1125 76 1086 95 1047.2 93.7C1008.3 92.3 969.7 70.7 931 64.7C892.3 58.7 853.7 68.3 814.8 68.3C776 68.3 737 58.7 698.2 64.7C659.3 70.7 620.7 92.3 581.8 100.8C543 109.3 504 104.7 465.2 96.3C426.3 88 387.7 76 349 78.3C310.3 80.7 271.7 97.3 232.8 102.2C194 107 155 100 116.2 101.2C77.3 102.3 38.7 111.7 19.3 116.3L0 121Z" fill="#2c5087"></path><path d="M0 455L19.3 453.7C38.7 452.3 77.3 449.7 116.2 454.3C155 459 194 471 232.8 460.3C271.7 449.7 310.3 416.3 349 417.7C387.7 419 426.3 455 465.2 447.7C504 440.3 543 389.7 581.8 376.3C620.7 363 659.3 387 698.2 403.8C737 420.7 776 430.3 814.8 437.7C853.7 445 892.3 450 931 446.5C969.7 443 1008.3 431 1047.2 428.5C1086 426 1125 433 1163.8 423.3C1202.7 413.7 1241.3 387.3 1260.7 374.2L1280 361L1280 229L1260.7 233.8C1241.3 238.7 1202.7 248.3 1163.8 265.2C1125 282 1086 306 1047.2 321.7C1008.3 337.3 969.7 344.7 931 342.3C892.3 340 853.7 328 814.8 320.8C776 313.7 737 311.3 698.2 295.7C659.3 280 620.7 251 581.8 254.5C543 258 504 294 465.2 294C426.3 294 387.7 258 349 265.2C310.3 272.3 271.7 322.7 232.8 339.5C194 356.3 155 339.7 116.2 324.2C77.3 308.7 38.7 294.3 19.3 287.2L0 280Z" fill="#173e75"></path><path d="M0 541L19.3 533.8C38.7 526.7 77.3 512.3 116.2 519.5C155 526.7 194 555.3 232.8 554.2C271.7 553 310.3 522 349 530.5C387.7 539 426.3 587 465.2 576.2C504 565.3 543 495.7 581.8 481.2C620.7 466.7 659.3 507.3 698.2 534.8C737 562.3 776 576.7 814.8 583.8C853.7 591 892.3 591 931 581.5C969.7 572 1008.3 553 1047.2 539.8C1086 526.7 1125 519.3 1163.8 514.5C1202.7 509.7 1241.3 507.3 1260.7 506.2L1280 505L1280 359L1260.7 372.2C1241.3 385.3 1202.7 411.7 1163.8 421.3C1125 431 1086 424 1047.2 426.5C1008.3 429 969.7 441 931 444.5C892.3 448 853.7 443 814.8 435.7C776 428.3 737 418.7 698.2 401.8C659.3 385 620.7 361 581.8 374.3C543 387.7 504 438.3 465.2 445.7C426.3 453 387.7 417 349 415.7C310.3 414.3 271.7 447.7 232.8 458.3C194 469 155 457 116.2 452.3C77.3 447.7 38.7 450.3 19.3 451.7L0 453Z" fill="#133665"></path><path d="M0 721L19.3 721C38.7 721 77.3 721 116.2 721C155 721 194 721 232.8 721C271.7 721 310.3 721 349 721C387.7 721 426.3 721 465.2 721C504 721 543 721 581.8 721C620.7 721 659.3 721 698.2 721C737 721 776 721 814.8 721C853.7 721 892.3 721 931 721C969.7 721 1008.3 721 1047.2 721C1086 721 1125 721 1163.8 721C1202.7 721 1241.3 721 1260.7 721L1280 721L1280 503L1260.7 504.2C1241.3 505.3 1202.7 507.7 1163.8 512.5C1125 517.3 1086 524.7 1047.2 537.8C1008.3 551 969.7 570 931 579.5C892.3 589 853.7 589 814.8 581.8C776 574.7 737 560.3 698.2 532.8C659.3 505.3 620.7 464.7 581.8 479.2C543 493.7 504 563.3 465.2 574.2C426.3 585 387.7 537 349 528.5C310.3 520 271.7 551 232.8 552.2C194 553.3 155 524.7 116.2 517.5C77.3 510.3 38.7 524.7 19.3 531.8L0 539Z" fill="#102e56"></path></svg>